<?xml version="1.0" encoding="utf-8"?>
<!-- Generator: Adobe Illustrator 24.3.0, SVG Export Plug-In . SVG Version: 6.00 Build 0)  -->
<svg version="1.1" id="Capa_1" xmlns="http://www.w3.org/2000/svg" xmlns:xlink="http://www.w3.org/1999/xlink" x="0px" y="0px"
	 viewBox="0 0 100 100" style="enable-background:new 0 0 100 100;" xml:space="preserve">
<style type="text/css">
	.st0{fill-rule:evenodd;clip-rule:evenodd;fill:#222221;}
</style>
<g id="XMLID_2331_">
	<g id="XMLID_2332_">
		<path id="XMLID_2334_" class="st0" d="M100.02,47.47C99.35,21.14,77.66,0,50.96,0C24.58,0,3.07,20.66,1.92,46.58
			C1.9,47.29,1.88,48,1.88,48.71c0,9.21,2.57,17.81,7.03,25.16L0.06,100l27.18-8.64c7.03,3.86,15.12,6.07,23.71,6.07
			c27.11,0,49.08-21.81,49.08-48.71C100.04,48.3,100.04,47.89,100.02,47.47z M50.96,89.66c-8.39,0-16.18-2.48-22.7-6.78L12.4,87.94
			l5.15-15.21c-4.94-6.76-7.86-15.05-7.86-24.01c0-1.33,0.07-2.66,0.21-3.97C11.92,24.01,29.57,7.77,50.96,7.77
			c21.67,0,39.48,16.66,41.13,37.75c0.09,1.06,0.14,2.11,0.14,3.19C92.23,71.3,73.71,89.66,50.96,89.66z"/>
		<path id="XMLID_2333_" class="st0" d="M73.45,58.55c-1.22-0.6-7.12-3.49-8.23-3.88c-1.1-0.41-1.91-0.6-2.71,0.6
			c-0.8,1.19-3.12,3.88-3.81,4.66c-0.71,0.8-1.4,0.9-2.62,0.3c-1.2-0.6-5.08-1.84-9.67-5.93c-3.56-3.15-6-7.05-6.69-8.25
			c-0.69-1.2-0.07-1.84,0.53-2.44c0.55-0.55,1.19-1.4,1.81-2.09c0.16-0.21,0.3-0.39,0.44-0.57c0.28-0.44,0.48-0.85,0.76-1.43
			c0.41-0.8,0.21-1.49-0.09-2.09c-0.3-0.6-2.71-6.48-3.72-8.87c-0.99-2.39-2-1.98-2.71-1.98c-0.69,0-1.49-0.11-2.3-0.11
			c-0.8,0-2.11,0.3-3.22,1.49c-1.1,1.2-4.2,4.09-4.2,9.97c0,1.38,0.25,2.76,0.62,4.07c1.22,4.2,3.84,7.67,4.3,8.27
			c0.6,0.78,8.32,13.23,20.54,18.04c12.25,4.76,12.25,3.17,14.45,2.96c2.21-0.18,7.12-2.87,8.11-5.68c1.01-2.78,1.01-5.17,0.71-5.68
			C75.45,59.44,74.65,59.14,73.45,58.55z"/>
	</g>
</g>
</svg>
