<?xml version="1.0" encoding="utf-8"?>
<!-- Generator: Adobe Illustrator 24.3.0, SVG Export Plug-In . SVG Version: 6.00 Build 0)  -->
<svg version="1.1" id="Capa_1" xmlns="http://www.w3.org/2000/svg" xmlns:xlink="http://www.w3.org/1999/xlink" x="0px" y="0px"
	 viewBox="0 0 100 100" style="enable-background:new 0 0 100 100;" xml:space="preserve">
<style type="text/css">
	.st0{fill:#222221;}
</style>
<g id="XMLID_2296_">
	<g id="XMLID_2297_">
		<g id="XMLID_2299_">
			<rect id="XMLID_2301_" x="1.49" y="33.15" class="st0" width="20.86" height="67.39"/>
			<path id="XMLID_2300_" class="st0" d="M11.82,24.33c6.81,0,12.33-5.57,12.33-12.44S18.63-0.54,11.82-0.54
				C5-0.54-0.52,5.03-0.52,11.89S5,24.33,11.82,24.33z"/>
		</g>
		<path id="XMLID_2298_" class="st0" d="M55.69,65.17c0-9.47,4.36-15.12,12.71-15.12c7.67,0,11.36,5.42,11.36,15.12
			c0,9.71,0,35.37,0,35.37h20.76c0,0,0-24.62,0-42.67c0-18.05-10.23-26.78-24.52-26.78c-14.29,0-20.31,11.13-20.31,11.13v-9.08
			H35.68v67.39h20.01C55.69,100.54,55.69,75.55,55.69,65.17z"/>
	</g>
</g>
</svg>
