<?xml version="1.0" encoding="utf-8"?>
<!-- Generator: Adobe Illustrator 24.3.0, SVG Export Plug-In . SVG Version: 6.00 Build 0)  -->
<svg version="1.1" id="Capa_1" xmlns="http://www.w3.org/2000/svg" xmlns:xlink="http://www.w3.org/1999/xlink" x="0px" y="0px"
	 viewBox="0 0 100 100" style="enable-background:new 0 0 100 100;" xml:space="preserve">
<style type="text/css">
	.st0{fill:#222221;}
</style>
<g id="XMLID_2407_">
	<path id="XMLID_2408_" class="st0" d="M-0.22,81.55c9.12,5.85,19.95,9.26,31.59,9.26c38.26,0,59.87-32.31,58.57-61.3
		c4.02-2.9,7.52-6.53,10.28-10.67c-3.7,1.64-7.67,2.75-11.83,3.24c4.25-2.54,7.52-6.58,9.06-11.4c-3.98,2.36-8.39,4.08-13.08,5
		c-3.76-4.01-9.12-6.51-15.04-6.51c-13.3,0-23.07,12.41-20.07,25.3c-17.13-0.86-32.31-9.06-42.47-21.53
		c-5.4,9.26-2.8,21.38,6.38,27.51c-3.38-0.11-6.56-1.04-9.34-2.58c-0.22,9.55,6.62,18.48,16.53,20.47c-2.9,0.79-6.08,0.97-9.3,0.35
		c2.62,8.19,10.23,14.14,19.25,14.31C21.63,79.81,10.71,82.84-0.22,81.55z"/>
</g>
</svg>
