<?xml version="1.0" standalone="no"?>
<!DOCTYPE svg PUBLIC "-//W3C//DTD SVG 20010904//EN"
 "http://www.w3.org/TR/2001/REC-SVG-20010904/DTD/svg10.dtd">
<svg version="1.0" xmlns="http://www.w3.org/2000/svg"
 width="370.000000pt" height="370.000000pt" viewBox="0 0 370.000000 370.000000"
 preserveAspectRatio="xMidYMid meet">
<metadata>
Created by potrace 1.14, written by Peter Selinger 2001-2017
</metadata>
<g transform="translate(0.000000,370.000000) scale(0.100000,-0.100000)"
fill="#000000" stroke="none">
<path d="M1678 3665 c-2 -2 -28 -6 -58 -10 -30 -3 -62 -8 -70 -10 -8 -2 -31
-7 -50 -10 -19 -3 -69 -15 -110 -26 -41 -11 -82 -21 -90 -23 -29 -7 -172 -66
-238 -99 -227 -110 -489 -321 -623 -502 -24 -33 -49 -64 -55 -70 -20 -18 -132
-211 -169 -290 -54 -118 -108 -280 -129 -385 -2 -14 -9 -48 -15 -75 -13 -69
-24 -203 -24 -305 1 -451 174 -889 483 -1223 41 -46 63 -59 84 -51 31 12 26
38 -23 123 -27 47 -61 112 -75 144 -29 62 -82 220 -92 271 -29 148 -32 184
-29 351 1 99 5 194 9 210 49 217 71 285 137 418 42 84 111 200 129 217 3 3 17
21 32 41 82 110 232 245 371 332 151 96 374 184 511 202 17 3 54 9 81 14 91
17 368 7 480 -18 461 -102 821 -380 1027 -796 33 -66 93 -225 104 -277 28
-131 36 -192 41 -306 6 -145 -7 -281 -38 -402 -11 -41 -21 -82 -23 -90 -18
-74 -108 -269 -163 -350 -28 -42 -28 -52 -5 -72 31 -28 51 -12 163 122 106
128 196 278 267 443 39 90 87 240 98 304 3 15 7 36 10 45 26 87 39 446 21 578
-8 59 -17 111 -22 130 -2 8 -7 31 -10 50 -7 43 -17 76 -68 215 -199 552 -668
977 -1247 1130 -133 35 -285 52 -457 53 -89 0 -163 -2 -165 -3z"/>
<path d="M1858 2456 c-1 -2 -32 -6 -68 -9 -88 -8 -143 -27 -155 -55 -9 -21
-14 -22 -65 -16 -84 10 -103 10 -107 -2 -2 -6 20 -22 49 -35 29 -13 116 -56
194 -96 79 -39 148 -70 156 -69 35 7 407 199 402 207 -3 5 -22 7 -42 5 -114
-16 -132 -17 -132 -7 0 18 -40 49 -73 56 -18 3 -54 9 -82 11 -27 3 -55 7 -62
9 -6 2 -13 2 -15 1z"/>
<path d="M779 2347 c-45 -48 -132 -181 -177 -272 -98 -198 -143 -389 -145
-619 -1 -294 86 -570 257 -809 325 -456 876 -673 1422 -562 410 84 777 363
963 731 60 120 110 264 126 364 3 19 8 49 12 65 9 48 12 84 13 185 2 287 -64
526 -214 768 -78 125 -122 174 -155 170 -37 -4 -38 -30 -2 -107 38 -83 80
-227 89 -306 9 -77 9 -244 0 -315 -30 -225 -142 -451 -312 -625 -289 -298
-677 -403 -1106 -300 -115 27 -312 130 -410 214 -112 96 -214 221 -278 341
-35 65 -97 228 -107 279 -20 108 -25 161 -25 246 0 93 4 134 26 251 8 41 56
180 80 232 29 62 28 81 -4 93 -19 7 -29 3 -53 -24z"/>
<path d="M1332 2339 c-82 -41 -134 -134 -127 -230 4 -60 70 -202 97 -207 9 -2
116 45 237 105 220 108 248 128 226 163 -8 13 -359 190 -377 190 -7 0 -32 -10
-56 -21z"/>
<path d="M2131 2269 c-96 -48 -178 -94 -183 -102 -4 -9 -6 -22 -2 -30 7 -20
434 -233 459 -229 13 2 30 23 47 60 42 86 50 113 49 162 0 101 -83 208 -172
223 -16 3 -84 -26 -198 -84z"/>
<path d="M1585 1995 c-218 -111 -260 -135 -259 -153 2 -26 308 -634 342 -679
13 -18 47 -44 76 -58 79 -39 165 -35 236 10 62 40 46 12 331 577 38 75 69 146
69 157 0 17 -42 42 -242 142 -134 67 -254 125 -268 129 -20 5 -79 -21 -285
-125z"/>
</g>
</svg>
